# The Great Editor v0.0.1
mtllib floor_1.mtl
o floor_1
v -0.033330227140360824 0.034243447874199175 0
v -0.033330227140360824 0.034243447874199175 -0.1
v 10.000682585905649 -2.3296447291820677e-06 0
v 10.000682585905649 -2.3296447291820677e-06 -0.1
v 9.977852067559697 -6.6893442050087355 0
v 9.977852067559697 -6.6893442050087355 -0.1
v -0.05616074548631306 -6.655098427489808 0
v -0.05616074548631306 -6.655098427489808 -0.1
vt -0.033330227140360824 0.034243447874199175 0
vt 10.000682585905649 -2.3296447291820677e-06 0
vt 9.977852067559697 -6.6893442050087355 0
vt -0.05616074548631306 -6.655098427489808 0
vn 0 0 1
vn 0 0 -1
usemtl floor_1
s off
f 1/1/1 7/4/1 3/2/1
f 4/2/2 8/4/2 2/1/2
f 3/2/1 7/4/1 5/3/1
f 6/3/2 8/4/2 4/2/2
