# Blender v2.90.0 OBJ File: 'FoodCourtFurnitures.blend'
# www.blender.org
mtllib FoodCourtBenchLong.mtl
o FoodCourtBenchLong
v -0.137897 0.935818 0.447115
v -0.124970 0.935818 0.000000
v 0.213845 0.935818 0.000000
v -0.137897 -0.935818 0.447115
v -0.124970 -0.935818 0.000000
v 0.213845 -0.935818 0.000000
v -0.258649 0.935818 0.000000
v -0.258649 -0.935818 0.000000
v -0.258649 0.935818 0.452541
v -0.258649 -0.935818 0.452541
v -0.196169 -0.935818 0.867640
v -0.196169 0.935818 0.867640
v -0.258649 -0.935818 0.869711
v -0.258649 0.935818 0.869711
v -0.178789 0.935818 0.832094
v -0.178789 -0.935818 0.832094
v -0.258649 -0.935818 0.832094
v -0.258649 0.935818 0.832094
v -0.102841 0.935818 0.427691
v -0.102841 -0.935818 0.427691
v -0.151835 -0.935818 0.477391
v -0.151835 0.935818 0.477391
v 0.179495 0.935818 0.427691
v 0.213845 0.935818 0.393340
v 0.213845 -0.935818 0.393340
v 0.179495 -0.935818 0.427691
vt 0.988603 0.206294
vt 0.988603 0.365929
vt 0.974662 0.379870
vt 0.851097 0.206294
vt 0.860078 0.379870
vt 0.845850 0.387753
vt 0.939700 0.797512
vt 0.934454 0.616052
vt 0.988707 0.616052
vt 0.988707 0.799714
vt 0.796844 0.389956
vt 0.796844 0.206294
vt 0.796844 0.543995
vt 0.829255 0.543995
vt 0.822201 0.558422
vt 0.796844 0.559262
vt 0.956296 0.953753
vt 0.988707 0.953753
vt 0.988707 0.969020
vt 0.963349 0.968180
vt 0.945357 0.809799
vt 0.840194 0.400041
vt 0.925473 0.789628
vt 0.810888 0.789628
vt 0.796947 0.616052
vt 0.796947 0.775687
vt 0.010403 0.675090
vt 0.769998 0.675090
vt 0.769998 0.789675
vt 0.010403 0.789674
vt 0.010403 0.969026
vt 0.010403 0.809390
vt 0.769998 0.809390
vt 0.769998 0.969025
vt 0.769997 0.106532
vt 0.769997 0.290193
vt 0.010403 0.290193
vt 0.010403 0.106531
vt 0.769997 0.500928
vt 0.010403 0.500930
vt 0.010403 0.484872
vt 0.769997 0.484871
vt 0.010403 0.459500
vt 0.769997 0.459500
vt 0.010403 0.444233
vt 0.769997 0.444233
vt 0.769998 0.645297
vt 0.010403 0.645299
vt 0.010403 0.658826
vt 0.769998 0.658825
vn 0.0000 -1.0000 0.0000
vn 0.0000 1.0000 0.0000
vn 0.1603 0.7680 0.6200
vn 0.1603 -0.7680 0.6200
vn 0.2971 -0.6302 0.7173
vn 0.2971 0.6302 0.7173
vn 0.7071 0.7071 0.0000
vn 0.7173 0.6302 0.2971
vn 0.7173 -0.6302 0.2971
vn 0.7071 -0.7071 0.0000
vn -0.7071 -0.7071 0.0000
vn -0.7071 0.7071 0.0000
vn 0.7189 -0.6670 0.1953
vn 0.7189 0.6670 0.1953
vn 0.4317 0.6074 0.6668
vn 0.4317 -0.6074 0.6668
vn -0.5685 0.5756 0.5877
vn -0.5685 -0.5756 0.5877
vn 0.6412 -0.7491 0.1662
vn 0.6412 0.7491 0.1662
vn 0.4546 0.7844 0.4219
vn 0.4546 -0.7844 0.4219
usemtl FoodCourtBenchLong
s off
f 6/1/1 25/2/1 26/3/1
f 5/4/1 20/5/1 4/6/1
f 1/7/2 2/8/2 7/9/2 9/10/2
f 5/4/1 4/6/1 10/11/1 8/12/1
f 17/13/1 16/14/1 11/15/1 13/16/1
f 15/17/2 18/18/2 14/19/2 12/20/2
f 22/21/2 9/10/2 18/18/2 15/17/2
f 10/11/1 21/22/1 16/14/1 17/13/1
f 2/8/2 1/7/2 19/23/2
f 10/11/1 4/6/1 21/22/1
f 1/7/2 9/10/2 22/21/2
f 2/8/2 19/23/2 23/24/2 3/25/2
f 3/25/2 23/24/2 24/26/2
f 26/3/1 20/5/1 5/4/1 6/1/1
s 1
f 19/27/3 20/28/4 26/29/5 23/30/6
f 3/31/7 24/32/8 25/33/9 6/34/10
f 8/35/11 10/36/11 9/37/12 7/38/12
f 16/39/13 15/40/14 12/41/15 11/42/16
f 11/42/16 12/41/15 14/43/17 13/44/18
f 18/45/12 17/46/11 13/44/18 14/43/17
f 9/37/12 10/36/11 17/46/11 18/45/12
f 21/47/19 22/48/20 15/40/14 16/39/13
f 1/49/21 4/50/22 20/28/4 19/27/3
f 4/50/22 1/49/21 22/48/20 21/47/19
f 23/30/6 26/29/5 25/33/9 24/32/8
