# Blender v2.90.0 OBJ File: 'FoodCourtFurnitures.blend'
# www.blender.org
mtllib FoodCourtBenchLong_Col.mtl
o FoodCourtBenchLong_Col
v -0.137897 0.935818 0.447115
v -0.124970 0.935818 0.000000
v 0.213845 0.935818 0.000000
v -0.137897 -0.935818 0.447115
v -0.124970 -0.935818 0.000000
v 0.213845 -0.935818 0.000000
v -0.258649 0.935818 0.000000
v -0.258649 -0.935818 0.000000
v -0.258649 0.935818 0.452541
v -0.258649 -0.935818 0.452541
v -0.196169 -0.935818 0.867640
v -0.196169 0.935818 0.867640
v -0.258649 -0.935818 0.869711
v -0.258649 0.935818 0.869711
v 0.179495 0.935818 0.427691
v 0.213845 0.935818 0.393340
v 0.213845 -0.935818 0.393340
v 0.179495 -0.935818 0.427691
vt 0.988603 0.206294
vt 0.988603 0.365929
vt 0.974662 0.379870
vt 0.845850 0.387753
vt 0.851097 0.206294
vt 0.939700 0.797512
vt 0.934454 0.616052
vt 0.988707 0.616052
vt 0.988707 0.799714
vt 0.796844 0.389956
vt 0.796844 0.206294
vt 0.822201 0.558422
vt 0.796844 0.559262
vt 0.988707 0.969020
vt 0.963349 0.968180
vt 0.810888 0.789628
vt 0.796947 0.616052
vt 0.796947 0.775687
vt 0.010403 0.484872
vt 0.769997 0.484871
vt 0.769998 0.658825
vt 0.010403 0.658826
vt 0.769998 0.789675
vt 0.010403 0.789674
vt 0.010403 0.969026
vt 0.010403 0.809390
vt 0.769998 0.809390
vt 0.769998 0.969025
vt 0.769997 0.106532
vt 0.769997 0.290193
vt 0.010403 0.290193
vt 0.010403 0.106531
vt 0.010403 0.459500
vt 0.769997 0.459500
vn 0.0000 -1.0000 0.0000
vn 0.0000 1.0000 0.0000
vn 0.5418 0.5868 0.6016
vn 0.5418 -0.5868 0.6016
vn 0.3222 -0.8804 0.3479
vn 0.3222 0.8804 0.3479
vn 0.3171 -0.6354 0.7040
vn 0.3171 0.6354 0.7040
vn 0.7071 0.7071 0.0000
vn 0.7173 0.6302 0.2971
vn 0.7173 -0.6302 0.2971
vn 0.7071 -0.7071 0.0000
vn -0.7071 -0.7071 0.0000
vn -0.7071 0.7071 0.0000
vn -0.5685 0.5756 0.5877
vn -0.5685 -0.5756 0.5877
usemtl None
s off
f 6/1/1 17/2/1 18/3/1
f 18/3/1 4/4/1 5/5/1 6/1/1
f 1/6/2 2/7/2 7/8/2 9/9/2
f 5/5/1 4/4/1 10/10/1 8/11/1
f 4/4/1 11/12/1 13/13/1 10/10/1
f 9/9/2 14/14/2 12/15/2 1/6/2
f 1/6/2 15/16/2 3/17/2 2/7/2
f 3/17/2 15/16/2 16/18/2
s 1
f 12/19/3 11/20/4 4/21/5 1/22/6
f 1/22/6 4/21/5 18/23/7 15/24/8
f 3/25/9 16/26/10 17/27/11 6/28/12
f 8/29/13 10/30/13 9/31/14 7/32/14
f 11/20/4 12/19/3 14/33/15 13/34/16
f 9/31/14 10/30/13 13/34/16 14/33/15
f 15/24/8 18/23/7 17/27/11 16/26/10
