# The Great Editor v0.0.1
mtllib floor_1.mtl
o floor_1
v 0.5272193877551022 -0.4676785714285715 0
v 0.5272193877551022 -0.4676785714285715 -0.1
v 32.112244897959194 -0.4924744897959185 0
v 32.112244897959194 -0.4924744897959185 -0.1
v 30.390408163265317 -38.043341836734704 0
v 30.390408163265317 -38.043341836734704 -0.1
v 32.55466836734695 -38.05686224489797 0
v 32.55466836734695 -38.05686224489797 -0.1
v 32.78461734693878 -45.510025510204095 0
v 32.78461734693878 -45.510025510204095 -0.1
v 0.9851530612244901 -45.482219387755116 0
v 0.9851530612244901 -45.482219387755116 -0.1
vt 0.5272193877551022 -0.4676785714285715 0
vt 32.112244897959194 -0.4924744897959185 0
vt 30.390408163265317 -38.043341836734704 0
vt 32.55466836734695 -38.05686224489797 0
vt 32.78461734693878 -45.510025510204095 0
vt 0.9851530612244901 -45.482219387755116 0
vn 0 0 1
vn 0 0 -1
usemtl floor_1
s off
f 1/1/1 11/6/1 5/3/1
f 6/3/2 12/6/2 2/1/2
f 1/1/1 5/3/1 3/2/1
f 4/2/2 6/3/2 2/1/2
f 9/5/1 7/4/1 5/3/1
f 6/3/2 8/4/2 10/5/2
f 9/5/1 5/3/1 11/6/1
f 12/6/2 6/3/2 10/5/2
