# The Great Editor v0.0.1
mtllib floor_1.mtl
o floor_1
v 9.438808322578486 -22.751825461677875 0
v 9.438808322578486 -22.751825461677875 -0.1
v 30.24303745885116 -22.774311349079856 0
v 30.24303745885116 -22.774311349079856 -0.1
v 30.064709719708897 -38.19173341225262 0
v 30.064709719708897 -38.19173341225262 -0.1
v 9.506549661280799 -38.22255616788165 0
v 9.506549661280799 -38.22255616788165 -0.1
vt 9.438808322578486 -22.751825461677875 0
vt 30.24303745885116 -22.774311349079856 0
vt 30.064709719708897 -38.19173341225262 0
vt 9.506549661280799 -38.22255616788165 0
vn 0 0 1
vn 0 0 -1
usemtl floor_1
s off
f 1/1/1 7/4/1 5/3/1
f 6/3/2 8/4/2 2/1/2
f 1/1/1 5/3/1 3/2/1
f 4/2/2 6/3/2 2/1/2
